<?xml version="1.0" encoding="UTF-8" standalone="no"?>
<svg width="800" height="600" xmlns="http://www.w3.org/2000/svg">
  <!-- Background -->
  <rect width="800" height="600" fill="#f8f9fa" rx="10" ry="10"/>
  
  <!-- Header -->
  <rect x="50" y="30" width="700" height="60" fill="#4a6cf7" rx="5" ry="5"/>
  <text x="400" y="70" font-family="Arial" font-size="24" fill="white" text-anchor="middle">Job Matching Results</text>
  
  <!-- Filter Panel -->
  <rect x="50" y="120" width="200" height="400" fill="white" stroke="#ddd" stroke-width="2" rx="5" ry="5"/>
  <text x="150" y="150" font-family="Arial" font-size="16" font-weight="bold" fill="#333" text-anchor="middle">Filters</text>
  
  <!-- Filter Options -->
  <text x="70" y="180" font-family="Arial" font-size="14" fill="#333">Location</text>
  <rect x="70" y="190" width="160" height="30" fill="#f0f0f0" rx="3" ry="3"/>
  <text x="85" y="210" font-family="Arial" font-size="12" fill="#666">San Francisco, CA</text>
  
  <text x="70" y="240" font-family="Arial" font-size="14" fill="#333">Job Type</text>
  <rect x="70" y="250" width="160" height="30" fill="#f0f0f0" rx="3" ry="3"/>
  <text x="85" y="270" font-family="Arial" font-size="12" fill="#666">Full-time</text>
  
  <text x="70" y="300" font-family="Arial" font-size="14" fill="#333">Experience Level</text>
  <rect x="70" y="310" width="160" height="30" fill="#f0f0f0" rx="3" ry="3"/>
  <text x="85" y="330" font-family="Arial" font-size="12" fill="#666">Mid-level (3-5 years)</text>
  
  <text x="70" y="360" font-family="Arial" font-size="14" fill="#333">Salary Range</text>
  <rect x="70" y="370" width="160" height="30" fill="#f0f0f0" rx="3" ry="3"/>
  <text x="85" y="390" font-family="Arial" font-size="12" fill="#666">$80,000 - $120,000</text>
  
  <rect x="70" y="420" width="160" height="40" fill="#4a6cf7" rx="5" ry="5"/>
  <text x="150" y="445" font-family="Arial" font-size="14" fill="white" text-anchor="middle">Apply Filters</text>
  
  <!-- Job Listings -->
  <rect x="280" y="120" width="470" height="400" fill="white" stroke="#ddd" stroke-width="2" rx="5" ry="5"/>
  
  <!-- Job Card 1 -->
  <rect x="300" y="140" width="430" height="120" fill="#f8f9fa" rx="5" ry="5" stroke="#ddd" stroke-width="1"/>
  <text x="320" y="165" font-family="Arial" font-size="16" font-weight="bold" fill="#333">Senior Data Scientist</text>
  <text x="320" y="185" font-family="Arial" font-size="14" fill="#666">TechCorp Inc. • San Francisco, CA</text>
  
  <!-- Match Percentage -->
  <circle cx="680" cy="170" r="30" fill="none" stroke="#e9ecef" stroke-width="5"/>
  <circle cx="680" cy="170" r="30" fill="none" stroke="#4a6cf7" stroke-width="5" stroke-dasharray="169.6 18.8"/>
  <text x="680" y="175" font-family="Arial" font-size="14" font-weight="bold" fill="#333" text-anchor="middle">90%</text>
  
  <!-- Job Details -->
  <text x="320" y="215" font-family="Arial" font-size="12" fill="#333">$110,000 - $130,000 • Full-time • Remote</text>
  <text x="320" y="235" font-family="Arial" font-size="12" fill="#333">Posted 2 days ago</text>
  
  <!-- Job Card 2 -->
  <rect x="300" y="280" width="430" height="120" fill="#f8f9fa" rx="5" ry="5" stroke="#ddd" stroke-width="1"/>
  <text x="320" y="305" font-family="Arial" font-size="16" font-weight="bold" fill="#333">Machine Learning Engineer</text>
  <text x="320" y="325" font-family="Arial" font-size="14" fill="#666">AI Solutions • San Francisco, CA</text>
  
  <!-- Match Percentage -->
  <circle cx="680" cy="310" r="30" fill="none" stroke="#e9ecef" stroke-width="5"/>
  <circle cx="680" cy="310" r="30" fill="none" stroke="#4a6cf7" stroke-width="5" stroke-dasharray="141.3 47.1"/>
  <text x="680" y="315" font-family="Arial" font-size="14" font-weight="bold" fill="#333" text-anchor="middle">75%</text>
  
  <!-- Job Details -->
  <text x="320" y="355" font-family="Arial" font-size="12" fill="#333">$95,000 - $115,000 • Full-time • On-site</text>
  <text x="320" y="375" font-family="Arial" font-size="12" fill="#333">Posted 5 days ago</text>
  
  <!-- Job Card 3 -->
  <rect x="300" y="420" width="430" height="80" fill="#f8f9fa" rx="5" ry="5" stroke="#ddd" stroke-width="1"/>
  <text x="320" y="445" font-family="Arial" font-size="16" font-weight="bold" fill="#333">Data Analyst</text>
  <text x="320" y="465" font-family="Arial" font-size="14" fill="#666">DataViz Corp • San Francisco, CA</text>
  
  <!-- Match Percentage -->
  <circle cx="680" cy="450" r="30" fill="none" stroke="#e9ecef" stroke-width="5"/>
  <circle cx="680" cy="450" r="30" fill="none" stroke="#4a6cf7" stroke-width="5" stroke-dasharray="113 75.4"/>
  <text x="680" y="455" font-family="Arial" font-size="14" font-weight="bold" fill="#333" text-anchor="middle">60%</text>
  
  <!-- Footer -->
  <rect x="50" y="540" width="700" height="40" fill="#4a6cf7" rx="5" ry="5" opacity="0.8"/>
  <text x="400" y="565" font-family="Arial" font-size="14" fill="white" text-anchor="middle">ResuMatch - AI-Powered Job Matching</text>
</svg> 